#N canvas 962 179 783 777 12;
#X declare -stdpath ./;
#X obj 315 93 key;
#X floatatom 315 127 5 0 0 0 - - - 0;
#X obj 315 166 sel 113 97;
#X floatatom 330 257 5 0 0 0 - - - 0;
#N canvas 1293 419 550 473 sube_baja 0;
#X obj 124 36 bng 19 250 50 0 empty empty empty 0 -10 0 12 #fcfcfc #000000 #000000;
#X obj 157 36 bng 19 250 50 0 empty empty empty 0 -10 0 12 #fcfcfc #000000 #000000;
#X obj 133 122 f;
#X floatatom 193 252 5 0 0 0 - - - 0;
#X obj 179 122 + 1;
#X obj 333 133 f;
#X obj 378 128 - 1;
#X obj 191 333 outlet;
#X obj 117 2 inlet;
#X obj 170 4 inlet;
#X obj 338 6 inlet;
#X obj 339 174 clip 60 5000;
#X obj 179 180 clip 60 5000;
#X connect 0 0 2 0;
#X connect 1 0 5 0;
#X connect 2 0 4 0;
#X connect 2 0 12 0;
#X connect 3 0 7 0;
#X connect 4 0 2 1;
#X connect 5 0 6 0;
#X connect 5 0 11 0;
#X connect 6 0 5 1;
#X connect 8 0 0 0;
#X connect 9 0 1 0;
#X connect 10 0 4 1;
#X connect 10 0 6 1;
#X connect 11 0 3 0;
#X connect 11 0 4 0;
#X connect 12 0 3 0;
#X connect 12 0 6 0;
#X restore 315 202 pd sube_baja;
#X floatatom 330 336 8 0 0 1 Hz - - 0;
#X floatatom 452 145 5 0 0 0 - - - 0;
#X obj 330 311 line;
#X floatatom 396 255 5 0 0 0 - - - 0;
#X obj 248 538 bob~, f 24;
#N canvas 635 124 513 424 test 0;
#X obj 313 147 min~;
#X obj 357 123 -~ 1;
#X obj 357 148 *~ -50;
#X floatatom 105 105 5 0 128 0 - - - 0;
#X obj 233 52 mtof;
#X text 301 49 test signal;
#X obj 313 90 phasor~ 220;
#X obj 233 107 osc~ 220;
#X obj 65 34 loadbang;
#X msg 65 102 1;
#X obj 362 239 noise~;
#X obj 233 277 *~ 0;
#X obj 313 244 *~ 0;
#X obj 362 287 *~ 0;
#X obj 295 338 +~;
#X obj 295 373 outlet~;
#X obj 59 316 declare -stdpath ./;
#X obj 105 127 vradio 19 1 0 3 empty empty empty 0 -8 0 10 #dfdfdf #000000 #000000 0;
#X obj 258 225 == 0;
#X obj 105 207 == 2;
#X obj 338 206 == 1;
#X obj 313 172 -~ 0.5;
#X text 127 126 Sine, f 8;
#X text 127 146 Sawtooth;
#X text 127 165 Noise, f 8;
#X text 144 104 Pitch;
#X msg 105 70 50;
#X connect 0 0 21 0;
#X connect 1 0 2 0;
#X connect 2 0 0 1;
#X connect 3 0 4 0;
#X connect 4 0 6 0;
#X connect 4 0 7 0;
#X connect 6 0 0 0;
#X connect 6 0 1 0;
#X connect 7 0 11 0;
#X connect 8 0 26 0;
#X connect 8 0 9 0;
#X connect 9 0 17 0;
#X connect 10 0 13 0;
#X connect 11 0 14 0;
#X connect 12 0 14 1;
#X connect 13 0 14 1;
#X connect 14 0 15 0;
#X connect 17 0 20 0;
#X connect 17 0 19 0;
#X connect 17 0 18 0;
#X connect 18 0 11 1;
#X connect 19 0 13 1;
#X connect 20 0 12 1;
#X connect 21 0 12 0;
#X connect 26 0 3 0;
#X coords 0 -1 1 1 93 90 2 100 100;
#X restore 188 394 pd test;
#X obj 330 466 line~;
#X obj 330 435 pack f 50;
#X floatatom 330 408 8 0 0 0 - - - 0;
#X obj 333 380 hsl 162 19 60 5000 0 1 empty empty empty -2 -8 0 10 #dfdfdf #000000 #000000 2000 1;
#X obj 416 431 hsl 162 19 0 8 0 1 empty empty empty -2 -8 0 10 #dfdfdf #000000 #000000 6037 1;
#X floatatom 413 458 5 0 8 0 - - - 0;
#X obj 413 487 sig~;
#X text 355 361 resonant/cutoff frequency;
#X text 439 409 "resonance" (0-8);
#X obj 234 654 dac~;
#X obj 478 58 loadbang;
#X msg 498 92 100;
#X obj 330 286 pack 0 800;
#X msg 588 250 3;
#X obj 653 396 dbtorms;
#X obj 653 226 vsl 19 162 0 100 0 0 empty empty empty 0 -9 0 12 #fcfcfc #000000 #000000 0 1;
#X obj 650 429 pack 0 100;
#X obj 648 457 line~;
#X obj 248 603 *~;
#X msg 627 165 90;
#X connect 0 0 1 0;
#X connect 1 0 2 0;
#X connect 2 0 4 0;
#X connect 2 1 4 1;
#X connect 3 0 23 0;
#X connect 4 0 3 0;
#X connect 5 0 14 0;
#X connect 6 0 4 2;
#X connect 7 0 5 0;
#X connect 8 0 23 1;
#X connect 9 0 29 0;
#X connect 10 0 9 0;
#X connect 11 0 9 1;
#X connect 12 0 11 0;
#X connect 13 0 12 0;
#X connect 14 0 13 0;
#X connect 15 0 16 0;
#X connect 16 0 17 0;
#X connect 17 0 9 2;
#X connect 21 0 22 0;
#X connect 21 0 24 0;
#X connect 21 0 30 0;
#X connect 22 0 6 0;
#X connect 23 0 7 0;
#X connect 24 0 15 0;
#X connect 25 0 27 0;
#X connect 26 0 25 0;
#X connect 27 0 28 0;
#X connect 28 0 29 1;
#X connect 29 0 20 0;
#X connect 29 0 20 1;
#X connect 30 0 26 0;
